<svg xmlns="http://www.w3.org/2000/svg" viewBox="0 0 423 423">
<path d="M137.3953430175781 310.6842857142857Q111.60962873186384 310.6842857142857 93.28819187709263 301.9985714285714Q74.96675502232142 293.3128571428571 63.56674673897879 278.7914285714286Q52.166738455636164 264.27 46.8286376953125 246.62714285714284Q41.49053693498884 228.9842857142857 41.49053693498884 211.34142857142854Q41.49053693498884 194.24142857142854 47.23577226911272 176.7342857142857Q52.981007603236606 159.22714285714284 64.78815046037946 144.57Q76.59529331752232 129.91285714285712 94.41910008021763 120.95571428571427Q112.24290684291294 111.99857142857141 136.21909179687498 111.99857142857141Q161.1000497000558 111.99857142857141 179.19529331752233 120.95571428571427Q197.29053693498884 129.91285714285712 208.96197378976004 144.70571428571427Q220.63341064453124 159.4985714285714 226.37865426199775 176.86999999999998Q232.12389787946427 194.24142857142854 232.12389787946427 211.34142857142854Q232.12389787946427 228.16999999999996 226.37866254534038 245.63190752301892Q220.6334272112165 263.0938150460379 208.82628435407366 277.88667218889503Q197.01914149693079 292.6795293317522 179.28581368582587 301.68190752301894Q161.552485874721 310.6842857142857 137.3953430175781 310.6842857142857ZM138.75243617466515 296.6606529017857Q154.67630092075893 296.6606529017857 166.16683785574776 289.5582664271763Q177.65737479073658 282.45587995256693 185.07647487095423 270.6939558628627Q192.49557495117188 258.9320317731584 196.11465846470423 244.6819986397879Q199.7337419782366 230.43196550641738 199.7337419782366 216.31763009207586Q199.7337419782366 198.85576398577007 195.5718096051897 182.6605038016183Q191.40987723214283 166.46524361746648 183.17649972098212 153.66281572614395Q174.9431222098214 140.8603878348214 162.6835431780134 133.30558175223211Q150.42396414620535 125.75077566964285 134.5000994001116 125.8412463378906Q118.66670532226561 125.93171700613837 107.08568943568638 133.21505310058592Q95.50467354910714 140.49838919503347 88.0855734688895 152.3055486188616Q80.66647338867188 164.11270804268972 77.04738987513952 178.40797651018414Q73.42830636160714 192.70324497767854 73.42830636160714 206.99853829520086Q73.42830636160714 221.20334437779013 77.18309587751116 236.85576398577007Q80.93788539341517 252.50818359374998 88.80936366489955 266.17011596679686Q96.68084193638393 279.8320483398437 109.07613525390624 288.2463506208147Q121.47142857142856 296.6606529017857 138.75243617466515 296.6606529017857Z" fill="#D96C47"/>
<path d="M286.7353430175781 310.6842857142857Q260.9496287318638 310.6842857142857 242.6281918770926 301.9985714285714Q224.3067550223214 293.3128571428571 212.90674673897877 278.7914285714286Q201.50673845563614 264.27 196.16863769531247 246.62714285714284Q190.8305369349888 228.9842857142857 190.8305369349888 211.34142857142854Q190.8305369349888 194.24142857142854 196.5757722691127 176.7342857142857Q202.32100760323658 159.22714285714284 214.12815046037943 144.57Q225.93529331752228 129.91285714285712 243.7591000802176 120.95571428571427Q261.5829068429129 111.99857142857141 285.55909179687495 111.99857142857141Q310.44004970005574 111.99857142857141 328.53529331752225 120.95571428571427Q346.6305369349888 129.91285714285712 358.30197378976004 144.70571428571427Q369.9734106445312 159.4985714285714 375.7186542619977 176.86999999999998Q381.46389787946424 194.24142857142854 381.46389787946424 211.34142857142854Q381.46389787946424 228.16999999999996 375.7186625453404 245.63190752301892Q369.9734272112165 263.0938150460379 358.16628435407364 277.88667218889503Q346.35914149693076 292.6795293317522 328.62581368582585 301.68190752301894Q310.89248587472093 310.6842857142857 286.7353430175781 310.6842857142857ZM288.0924361746651 296.6606529017857Q304.0163009207589 296.6606529017857 315.50683785574773 289.5582664271763Q326.99737479073656 282.45587995256693 334.4164748709542 270.6939558628627Q341.83557495117185 258.9320317731584 345.4546584647042 244.6819986397879Q349.07374197823657 230.43196550641738 349.07374197823657 216.31763009207586Q349.07374197823657 198.85576398577007 344.91180960518966 182.6605038016183Q340.7498772321428 166.46524361746648 332.5164997209821 153.66281572614395Q324.2831222098214 140.8603878348214 312.02354317801337 133.30558175223211Q299.76396414620535 125.75077566964285 283.84009940011157 125.8412463378906Q268.0067053222656 125.93171700613837 256.42568943568637 133.21505310058592Q244.8446735491071 140.49838919503347 237.42557346888947 152.3055486188616Q230.00647338867185 164.11270804268972 226.3873898751395 178.40797651018414Q222.76830636160713 192.70324497767854 222.76830636160713 206.99853829520086Q222.76830636160713 221.20334437779013 226.52309587751114 236.85576398577007Q230.27788539341515 252.50818359374998 238.1493636648995 266.17011596679686Q246.0208419363839 279.8320483398437 258.41613525390625 288.2463506208147Q270.81142857142856 296.6606529017857 288.0924361746651 296.6606529017857Z" fill="#14213D"/>
</svg>